<?xml version="1.0" standalone="no"?>
<!DOCTYPE svg PUBLIC "-//W3C//DTD SVG 20010904//EN"
 "http://www.w3.org/TR/2001/REC-SVG-20010904/DTD/svg10.dtd">
<svg version="1.0" xmlns="http://www.w3.org/2000/svg"
 width="400.000000pt" height="400.000000pt" viewBox="0 0 400.000000 400.000000"
 preserveAspectRatio="xMidYMid meet">
<metadata>
Created by potrace 1.11, written by Peter Selinger 2001-2013
</metadata>
<g transform="translate(0.000000,400.000000) scale(0.100000,-0.100000)"
fill="#000000" stroke="none">
<path d="M352 3338 l3 -63 113 -3 c63 -1 112 -7 112 -12 0 -6 8 -10 18 -10 9
0 30 -7 46 -15 15 -8 35 -15 42 -15 8 0 14 -4 14 -10 0 -5 6 -10 14 -10 8 0
16 -7 20 -15 3 -8 15 -15 26 -15 11 0 20 -4 20 -9 0 -5 13 -11 30 -14 21 -5
35 -17 49 -44 11 -21 32 -49 46 -62 14 -13 25 -28 25 -34 0 -6 10 -21 22 -34
l21 -23 -311 0 -312 0 0 -40 c0 -49 12 -56 110 -63 41 -2 76 -10 78 -16 2 -6
12 -11 23 -11 12 0 21 -9 25 -25 3 -14 10 -25 15 -25 5 0 9 -11 9 -25 0 -14 5
-25 10 -25 7 0 10 -297 10 -870 0 -573 -3 -870 -10 -870 -5 0 -10 -6 -10 -13
0 -29 -32 -77 -51 -77 -10 0 -19 -4 -19 -10 0 -5 -9 -10 -20 -10 -11 0 -20 -4
-20 -10 0 -5 -33 -10 -72 -12 l-73 -3 0 -45 0 -45 265 -5 c146 -3 258 -7 249
-8 -8 -1 -25 -11 -36 -21 -11 -11 -37 -23 -57 -26 -20 -4 -36 -11 -36 -16 0
-5 -9 -9 -20 -9 -11 0 -20 -4 -20 -10 0 -5 -10 -10 -23 -10 -12 0 -35 -12 -52
-27 -28 -26 -36 -28 -150 -33 l-120 -5 0 -65 0 -65 620 0 620 0 0 65 0 65
-129 5 c-90 4 -131 9 -134 18 -2 6 -10 12 -18 12 -8 0 -14 4 -14 9 0 11 -56
41 -77 41 -7 0 -13 4 -13 9 0 5 -18 12 -40 16 -22 4 -40 11 -40 16 0 5 -5 9
-11 9 -6 0 -17 7 -25 14 -13 13 -7 15 43 18 l58 3 3 38 c2 21 -2 45 -9 53 -11
14 -1 36 26 56 6 4 7 8 4 8 -4 0 10 17 30 39 63 67 126 142 130 154 2 7 18 26
36 42 17 17 44 48 60 70 16 22 38 49 49 60 12 11 37 40 56 63 42 53 64 78 96
114 13 15 24 32 24 38 0 5 5 10 12 10 6 0 8 3 5 7 -4 3 2 13 13 20 11 8 38 39
61 69 22 30 44 54 49 54 6 0 10 -127 10 -340 0 -220 -4 -340 -10 -340 -5 0
-10 -11 -10 -25 0 -14 -4 -25 -10 -25 -5 0 -10 -7 -10 -15 0 -8 -9 -15 -20
-15 -11 0 -20 -4 -20 -10 0 -5 -9 -10 -20 -10 -11 0 -20 -4 -20 -10 0 -5 -33
-10 -72 -12 -69 -3 -73 -4 -82 -31 -7 -19 -7 -34 0 -45 10 -16 47 -17 429 -17
382 0 419 1 429 17 7 11 7 26 0 45 -9 26 -14 28 -72 31 -39 2 -76 10 -98 22
-19 11 -41 20 -49 20 -8 0 -15 9 -15 20 0 11 -4 20 -10 20 -5 0 -10 9 -10 19
0 11 -4 23 -10 26 -6 4 -10 65 -10 151 l0 145 25 -28 c33 -37 37 -43 59 -83
10 -19 29 -45 42 -58 13 -13 24 -29 24 -37 0 -8 4 -15 8 -15 5 0 18 -17 30
-37 12 -21 34 -51 49 -68 15 -16 37 -47 48 -69 11 -21 30 -45 43 -53 12 -9 22
-24 22 -34 0 -11 4 -19 8 -19 4 0 16 -15 27 -32 10 -18 23 -36 29 -40 7 -5 4
-8 -6 -8 -10 0 -18 -4 -18 -10 0 -5 -6 -10 -13 -10 -18 0 -78 -30 -96 -48 -26
-25 -61 -32 -165 -32 -66 0 -106 -4 -114 -12 -16 -16 -16 -100 0 -116 17 -17
1429 -17 1446 0 16 16 15 90 0 110 -11 14 -36 17 -132 20 -84 2 -121 7 -124
16 -2 6 -10 12 -18 12 -8 0 -14 4 -14 8 0 9 -70 42 -88 42 -7 0 -12 4 -12 9 0
5 -16 12 -35 15 -19 4 -35 11 -35 16 0 6 -5 10 -11 10 -6 0 -17 7 -25 15 -13
13 17 15 263 17 l278 3 0 45 0 45 -72 3 c-40 2 -73 7 -73 12 0 6 -9 10 -20 10
-11 0 -20 5 -20 10 0 6 -6 10 -12 10 -15 0 -58 63 -58 85 0 8 -4 15 -10 15 -7
0 -10 293 -10 860 0 567 3 860 10 860 6 0 10 6 10 13 0 6 10 30 22 53 26 50
76 74 152 74 79 0 86 5 86 56 l0 44 -377 1 c-279 0 -372 3 -355 11 12 6 22 16
22 23 0 7 8 21 18 33 9 11 28 34 42 51 14 16 31 30 38 31 6 0 12 5 12 10 0 6
9 10 20 10 11 0 20 5 20 10 0 6 8 10 18 10 9 0 37 11 62 25 25 13 53 27 62 31
10 3 18 10 18 15 0 5 9 9 20 9 11 0 20 5 20 10 0 6 8 10 18 10 9 0 30 7 46 15
20 11 59 15 132 15 118 0 128 6 122 83 l-3 42 -627 3 -628 2 0 -53 c0 -29 5
-58 12 -65 8 -8 49 -12 120 -12 59 0 108 -4 108 -9 0 -5 13 -12 30 -16 16 -4
32 -11 35 -16 4 -5 15 -9 26 -9 10 0 19 -4 19 -10 0 -5 6 -10 14 -10 8 0 16
-7 20 -15 3 -8 14 -15 25 -15 11 0 22 -4 25 -9 3 -5 18 -12 32 -15 42 -11 56
-30 36 -48 -23 -20 -52 -57 -52 -64 0 -4 -19 -26 -42 -49 -53 -53 -130 -142
-142 -163 -5 -10 -21 -29 -35 -43 -14 -14 -37 -40 -51 -58 -13 -18 -38 -48
-55 -66 -16 -18 -39 -45 -49 -59 -11 -15 -29 -37 -40 -49 -12 -13 -34 -41 -51
-62 -38 -49 -118 -139 -127 -143 -5 -2 -8 -9 -8 -16 0 -7 -11 -23 -25 -36
l-25 -23 0 231 c0 148 4 232 10 232 6 0 10 9 10 20 0 11 5 20 10 20 6 0 10 11
10 25 0 20 5 25 24 25 13 0 26 5 28 12 3 7 31 13 69 15 35 2 74 6 85 8 24 5
39 45 29 76 -6 18 -21 19 -430 19 l-423 0 -10 -27 c-9 -25 -11 -25 -11 -6 -1
12 -11 30 -24 40 -13 10 -32 34 -43 53 -22 39 -32 53 -56 81 -10 10 -18 21
-18 24 0 3 -9 15 -20 27 -21 23 -27 44 -10 33 6 -3 13 1 16 9 3 9 15 16 25 16
10 0 19 5 19 10 0 6 9 10 20 10 11 0 20 5 20 10 0 6 8 10 18 10 9 0 30 7 46
15 20 10 59 15 131 15 116 0 115 -1 115 81 l0 49 -725 0 -726 0 3 -62z m1410
-506 c7 -7 20 -12 30 -12 11 0 18 -7 18 -20 0 -11 5 -20 10 -20 6 0 10 -8 10
-18 0 -10 4 -22 9 -28 9 -8 20 -214 12 -214 -6 0 -29 30 -77 103 -25 37 -49
67 -54 67 -5 0 -12 11 -16 25 -3 14 -10 25 -15 25 -5 0 -9 6 -9 14 0 8 -3 16
-7 18 -5 2 -22 21 -39 43 l-31 40 74 -6 c41 -3 79 -11 85 -17z m1236 0 c2 -7
10 -12 17 -12 7 0 20 -17 29 -37 10 -21 24 -50 32 -65 12 -22 14 -152 14 -865
l0 -838 -22 -45 c-11 -25 -24 -52 -28 -60 -14 -30 -36 -20 -67 32 -18 29 -42
59 -53 66 -11 7 -20 18 -20 25 0 7 -9 22 -19 34 -10 11 -26 33 -34 49 -9 16
-27 41 -41 56 -14 15 -26 32 -26 38 0 5 -4 10 -9 10 -5 0 -12 11 -15 25 -4 14
-17 32 -31 41 -14 9 -25 25 -25 35 0 11 -3 19 -8 19 -4 0 -18 18 -32 40 -14
22 -27 40 -30 40 -3 0 -16 18 -30 40 -14 22 -28 40 -32 40 -5 0 -8 6 -8 14 0
8 -18 36 -40 62 -22 27 -40 52 -40 57 0 5 -6 15 -12 22 -41 46 -72 88 -193
268 -25 37 -50 67 -55 67 -5 0 -12 10 -16 23 -4 12 -12 25 -18 29 -14 9 14 57
60 102 19 18 34 38 34 45 0 6 4 11 9 11 5 0 12 9 16 19 3 11 15 23 25 26 10 3
22 15 25 25 3 11 25 39 49 63 24 25 52 60 64 78 12 19 37 49 57 68 19 19 35
38 35 42 0 10 24 41 61 79 15 15 41 47 58 70 17 24 40 49 51 57 11 8 31 34 46
59 14 24 33 49 42 54 23 14 175 7 180 -8z m-1924 -30 c13 -20 31 -43 40 -51 9
-7 16 -20 16 -27 0 -8 4 -14 9 -14 5 0 14 -13 21 -30 7 -16 23 -36 36 -45 14
-9 22 -20 19 -25 -4 -6 -3 -10 2 -10 4 0 14 -12 21 -27 6 -16 30 -48 52 -72
22 -25 40 -48 40 -52 0 -11 57 -94 75 -109 8 -7 22 -27 31 -45 8 -18 28 -46
44 -61 16 -16 30 -33 30 -38 0 -10 48 -77 93 -131 15 -18 27 -38 27 -44 0 -6
5 -11 10 -11 6 0 10 -6 10 -14 0 -8 14 -28 30 -44 17 -17 30 -35 30 -41 0 -6
5 -11 10 -11 6 0 10 -5 10 -12 0 -6 11 -26 25 -44 14 -18 25 -35 25 -39 0 -3
-11 -18 -25 -33 -14 -15 -25 -30 -25 -34 0 -5 -22 -31 -50 -59 -27 -28 -50
-57 -50 -65 0 -7 -16 -25 -36 -40 -19 -15 -41 -39 -49 -54 -8 -15 -29 -43 -47
-62 -18 -19 -44 -49 -58 -68 -14 -18 -36 -45 -50 -60 -39 -43 -60 -70 -60 -76
0 -6 -19 -29 -38 -47 -42 -40 -62 -64 -62 -75 0 -5 -15 -22 -33 -38 -18 -16
-43 -46 -56 -66 -12 -21 -35 -47 -51 -58 -16 -11 -32 -30 -36 -42 -4 -12 -12
-28 -19 -34 -15 -16 -55 -7 -55 12 0 8 -4 14 -9 14 -5 0 -12 16 -15 36 -4 19
-14 38 -22 41 -22 8 -21 1695 1 1713 8 7 15 16 15 21 0 27 37 89 52 89 10 0
18 5 18 10 0 23 32 7 54 -28z"/>
</g>
</svg>
